<svg xmlns="http://www.w3.org/2000/svg" xml:space="preserve" width="2048" height="2048" style="shape-rendering:geometricPrecision;text-rendering:geometricPrecision;image-rendering:optimizeQuality;fill-rule:evenodd;clip-rule:evenodd"><defs><clipPath id="id0"><path d="M1024-.001c565.541 0 1024 458.46 1024 1024s-458.461 1024-1024 1024c-565.541 0-1024-458.461-1024-1024 0-565.541 458.461-1024 1024-1024z"/></clipPath><style>.fil1{fill:#1b5e20}.fil5{fill:#ca2b03}.fil6{fill:#dd2c00}.fil4,.fil8{fill:#e6e6e5;fill-rule:nonzero}.fil4{fill:#fffffe}</style></defs><g id="Layer_x0020_1"><path d="M1024-.001c565.541 0 1024 458.46 1024 1024s-458.461 1024-1024 1024c-565.541 0-1024-458.461-1024-1024 0-565.541 458.461-1024 1024-1024z" style="fill:#388e3c"/><g style="clip-path:url(#id0)"><g id="_517156312"><path id="_5278850241" class="fil1" d="M668.184 563.933 1804.07 1699.82l2.36 2.47 2.31 2.55 2.27 2.61 2.21 2.69 2.17 2.75L679.506 577.007l-2.163-2.753-2.215-2.685-2.265-2.616-2.315-2.547z"/><path id="_527884832" class="fil1" d="M679.506 577.007 1815.39 1712.89l2.04 2.73 2 2.79 1.94 2.85 1.89 2.91 1.84 2.97 1.78 3.03 1.73 3.08 1.67 3.14 1.62 3.19 1.56 3.24 1.49 3.29 1.44 3.34 1.38 3.39 1.32 3.43 1.25 3.48 1.19 3.53 1.13 3.57 1.06 3.61.99 3.65.92 3.69.86 3.72.79 3.77.71 3.8.65 3.83.57 3.87.5 3.9.43 3.93.35 3.96.27 3.98.2 4.02.12 4.04.04 4.06L715.236 688.798l-.04-4.063-.118-4.039-.198-4.015-.274-3.986-.35-3.959-.426-3.93-.499-3.898-.573-3.869-.646-3.833-.717-3.8-.787-3.765-.857-3.728-.925-3.69-.992-3.649-1.059-3.611-1.126-3.568-1.189-3.524-1.254-3.481-1.315-3.436-1.379-3.389-1.438-3.34-1.499-3.291-1.558-3.24-1.614-3.189-1.673-3.136-1.729-3.083-1.784-3.026-1.837-2.969-1.891-2.911-1.943-2.852-1.995-2.792z"/><path id="_527886608" class="fil1" d="M1324.48 757.365 2460.37 1893.25l3.92 7.33 2.45 8.3 1.07 9.19-.21 10.01-1.42 10.74-2.53 11.4-3.57 11.98-4.49 12.48-5.35 12.89-6.12 13.24-6.78 13.5-7.37 13.68-7.88 13.78-8.28 13.81-8.6 13.75-8.84 13.61-8.98 13.41-9.05 13.11-9.01 12.74-8.89 12.29-8.69 11.76-8.4 11.16-8.01 10.46-7.54 9.7-6.99 8.86-6.34 7.93-5.6 6.92-4.78 5.85-3.88 4.68-2.87 3.44-1.79 2.13-.61.72-1135.88-1135.88.61-.73 1.79-2.12 2.87-3.44 3.87-4.68 4.79-5.85 5.6-6.92 6.34-7.93 6.98-8.86 7.55-9.7 8.01-10.46 8.4-11.16 8.68-11.76 8.9-12.291 9.01-12.74 9.05-13.113 8.98-13.404 8.84-13.617 8.6-13.752 8.28-13.806 7.87-13.782 7.38-13.68 6.78-13.496 6.12-13.237 5.34-12.895 4.5-12.476 3.56-11.979 2.54-11.4 1.42-10.744.21-10.009-1.07-9.195-2.46-8.3z"/><path id="_527886632" class="fil1" d="m1510 1322.95 1135.88 1135.88v.01h-.01L1509.99 1322.96l.01-.01z"/><path id="_527886296" class="fil1" d="m1433.59 1290.2 1135.88 1135.89V2425.86L1433.59 1289.98v.19z"/><path id="_527886320" class="fil1" d="m1522.87 1302.29 1135.89 1135.88-.47 1.48-.51 1.46-.56 1.43-.61 1.42-.65 1.39-.71 1.37-.75 1.34-.79 1.32-.84 1.29-.88 1.26-.92 1.23-.96 1.2-1 1.17-1.04 1.13-1.07 1.1-1.12 1.07L1510 1322.95l1.11-1.07 1.08-1.1 1.04-1.14 1-1.16.96-1.2.92-1.24.88-1.26.84-1.29.79-1.31.75-1.34.71-1.37.65-1.39.61-1.42.56-1.44.51-1.46z"/><path id="_527886224" class="fil1" d="m1522.87 1302.29 1135.89 1135.88.39-1.44.35-1.46.29-1.47.25-1.5.19-1.51.14-1.53.08-1.55.03-1.56L1524.6 1290.27l-.03 1.56-.08 1.55-.14 1.53-.19 1.51-.25 1.5-.29 1.47-.35 1.46z"/><path id="_527886008" class="fil1" d="M1408.62 531.09 2544.5 1666.97l.24.67.2.68.17.69.13.71.09.71.05.73.02.74-.03.74L1409.49 536.759l.03-.745-.02-.736-.05-.727-.1-.717-.13-.706-.16-.694-.2-.679z"/><path id="_527886032" class="fil1" d="M1409.49 536.759 2545.37 1672.64l-9.03 145.06L1400.46 681.818z"/><path id="_527886128" class="fil1" d="M1400.46 681.818 2536.34 1817.7l-.04.84-.05.88-.03.92-.03.97-.02 1-.02 1.05-.01 1.09v1.13L1400.26 689.701v-1.132l.01-1.09.02-1.048.02-1.007.03-.965.03-.923.04-.881z"/><path id="_527887136" class="fil1" d="M1450.18 531.714 2586.06 1667.6l12.9 217.83L1463.08 749.551z"/><path id="_527886872" class="fil1" d="M1402.21 761.771 2538.09 1897.65l-1.65-1.49-1.62-1.53-1.57-1.58-1.53-1.63-1.49-1.67L1394.34 753.863l1.49 1.673 1.54 1.628 1.57 1.581 1.61 1.536z"/><path id="_527887376" class="fil1" d="M1487.13 862.875 2623.01 1998.76l-1.17.07-1.13.06-1.1.05-1.08.05-1.04.04-1.01.03-.99.03-.96.02L1478.65 863.227l.96-.019.98-.026 1.02-.033 1.04-.04 1.08-.047 1.1-.056 1.13-.061z"/><path id="_527887160" class="fil1" d="M1478.46 863.227 2614.34 1999.11l-.96-.02-.98-.03-1.02-.03-1.04-.04-1.08-.05-1.1-.05-1.13-.06-1.16-.07L1469.98 862.875l1.17.07 1.13.061 1.1.056 1.08.047 1.04.04 1.02.033.98.026z"/><path id="_527886944" class="fil1" d="M1321.95 754.134 2457.83 1890.02l2.54 3.23L1324.48 757.365z"/><path id="_527887328" class="fil1" d="M1412.64 772.504 2548.52 1908.39l-1.93-2.17-1.86-2.03-1.79-1.87-1.71-1.73-1.61-1.55-1.53-1.39L1402.21 761.771l1.52 1.385 1.62 1.556 1.71 1.721 1.79 1.878 1.86 2.027z"/><path id="_527887184" class="fil1" d="M1492.81 849.614 2628.7 1985.5l-.42.87-.41.87-.41.86-.39.86-.39.85-.38.84-.37.84-.36.84-.35.82-.35.83-.33.81-.33.81-.31.8-.31.79-.3.79-.28.78L1487.13 862.875l.28-.778.3-.787.31-.794.31-.8.33-.808.33-.815.35-.821.35-.828.36-.833.37-.841.38-.845.39-.852.39-.856.4-.862.41-.869z"/><path id="_527887208" class="fil1" d="M1503.68 528.902 2639.56 1664.78l18.6 213.27L1522.27 742.163z"/><path id="_527886800" class="fil1" d="M1584 689.701 2719.88 1825.58l-.03 3.07-.1 3.02-.16 2.96-.23 2.9-.29 2.85-.35 2.79-.4 2.74-.48 2.68-.53 2.63-.58 2.58-.65 2.52-.7 2.47-.76 2.42-.81 2.36-.87 2.32-.92 2.26-.97 2.21-1.02 2.16-1.08 2.11-1.12 2.06-1.17 2.01-1.22 1.96-1.27 1.91-1.31 1.87-1.36 1.81-1.4 1.77-1.45 1.73-1.49 1.67-1.54 1.63-1.57 1.58-1.61 1.53-1.66 1.49L1554.9 761.771l1.66-1.49 1.61-1.536 1.57-1.581 1.54-1.628 1.49-1.673 1.44-1.722 1.41-1.768 1.36-1.816 1.31-1.865 1.27-1.912 1.22-1.962 1.17-2.01 1.12-2.06 1.08-2.109 1.02-2.16.97-2.212.92-2.261.87-2.314.81-2.365.76-2.417.7-2.47.65-2.523.58-2.576.53-2.629.47-2.684.41-2.737.35-2.794.29-2.847.23-2.903.16-2.959.1-3.015z"/><path id="_527887064" class="fil1" d="M1400.26 689.701 2536.14 1825.58l.01 2.53.11 2.46.19 2.41.29 2.35.37 2.3.46 2.24.54 2.18.62 2.13.7 2.07.78 2.02.85 1.96.93 1.91 1 1.86 1.07 1.8 1.14 1.74 1.21 1.69 1.27 1.64 1.33 1.58L1413.13 726.57l-1.33-1.584-1.27-1.637-1.21-1.691-1.14-1.745-1.07-1.799-1-1.853-.93-1.908-.85-1.963-.78-2.018-.7-2.073-.62-2.129-.54-2.184-.46-2.241-.37-2.296-.29-2.351-.19-2.41-.11-2.465z"/><path id="_527886680" class="fil1" d="M1554.9 761.771 2690.78 1897.65l-1.47 1.34-1.57 1.5-1.64 1.66-1.73 1.8-1.79 1.94-1.86 2.08-1.92 2.2-1.97 2.32-2.01 2.44-2.06 2.54-2.1 2.63-2.12 2.73-2.15 2.81-2.17 2.89-2.18 2.96-2.18 3.01-2.19 3.08-2.18 3.12-2.17 3.16-2.16 3.2-2.13 3.23-2.1 3.24-2.07 3.26-2.04 3.26-1.98 3.26-1.94 3.25-1.87 3.24-1.82 3.21-1.75 3.19-1.67 3.14-1.59 3.11-1.5 3.05L1492.81 849.614l1.51-3.051 1.59-3.103 1.67-3.146 1.75-3.183 1.81-3.214 1.88-3.236 1.94-3.253 1.98-3.26 2.03-3.262 2.08-3.258 2.1-3.244 2.13-3.225 2.16-3.197 2.17-3.163 2.18-3.123 2.19-3.074 2.18-3.019 2.18-2.958 2.17-2.886 2.15-2.811 2.12-2.727 2.1-2.637 2.06-2.539 2.01-2.433 1.97-2.322 1.92-2.203 1.86-2.076 1.79-1.943 1.72-1.802 1.65-1.655 1.57-1.501z"/><path id="_527887616" class="fil1" d="m1548.49 531.09 1135.88 1135.88 35.16 149.08L1583.65 680.168z"/><path id="_527887664" class="fil1" d="M1583.65 680.168 2719.53 1816.05l.08 1.4.07 1.33.06 1.28.05 1.22.04 1.16.03 1.11.02 1.04v.99L1584 689.701l-.01-.991-.01-1.047-.03-1.105-.04-1.161-.05-1.22-.06-1.278-.07-1.336z"/><path id="_527887568" class="fil1" d="M1478.65 863.227 2614.53 1999.11l-.09 62.5L1478.56 925.729z"/><path id="_527887904" class="fil1" d="m1445.71 1320.76 1135.88 1135.88-1.56-1.77-1.47-1.84-1.37-1.92-1.27-2-1.17-2.06-1.06-2.12-.95-2.18-.84-2.24-.72-2.3-.6-2.34-.48-2.39-.34-2.43-.21-2.46-.08-2.5L1433.59 1290.2l.07 2.5.22 2.47.34 2.43.48 2.39.6 2.34.72 2.29.83 2.24.96 2.19 1.06 2.12 1.17 2.06 1.27 1.99 1.37 1.93 1.47 1.84z"/><path id="_527887760" class="fil1" d="m1477.24 1335.28 1135.88 1135.88-2-.12-1.98-.21-1.95-.28-1.92-.38-1.9-.45-1.86-.53-1.83-.61-1.8-.68-1.76-.76-1.72-.83-1.68-.9-1.63-.96-1.6-1.03-1.54-1.1-1.5-1.15-1.45-1.22-1135.88-1135.88 1.45 1.22 1.49 1.15 1.55 1.1 1.59 1.03 1.64.96 1.68.9 1.72.83 1.76.75 1.8.69 1.83.61 1.86.53 1.9.45 1.92.37 1.95.29 1.98.21z"/><path id="_527887928" class="fil1" d="m1509.99 1322.96 1135.88 1135.88-1.83 1.65-1.88 1.52-1.92 1.4-1.96 1.28-1.99 1.16-2.02 1.04-2.05.92-2.08.81-2.09.7-2.11.58-2.13.48-2.13.36-2.14.26-2.14.16-2.14.05-2.14-.05-1135.88-1135.88 2.14.05 2.14-.05 2.14-.16 2.14-.26 2.13-.36 2.12-.48 2.12-.58 2.09-.7 2.08-.81 2.05-.92 2.02-1.04 1.99-1.16 1.96-1.28 1.92-1.4 1.88-1.52z"/><path id="_527887856" class="fil1" d="m1445.77 1320.9 1135.88 1135.88 1.64 1.63 1.71 1.54-1135.88-1135.88-1.71-1.54z"/><path id="_527887976" class="fil1" d="M715.236 688.798 1851.12 1824.68l-.04 4.06-.12 4.04-.2 4.02-.27 3.98-.35 3.96-.43 3.93-.5 3.9-.57 3.87-.65 3.83-.71 3.8-.79 3.77-.86 3.72-.92 3.69-.99 3.65-1.06 3.61-1.13 3.57-1.19 3.53-1.25 3.48-1.32 3.43-1.38 3.39-1.44 3.34-1.49 3.29-1.56 3.24-1.62 3.19-1.67 3.14-1.73 3.08-1.78 3.03-1.84 2.97-1.89 2.91-1.94 2.85-2 2.79-2.04 2.73L679.506 800.587l2.045-2.729 1.995-2.791 1.943-2.853 1.891-2.911 1.837-2.969 1.784-3.026 1.729-3.082 1.673-3.136 1.614-3.189 1.558-3.239 1.499-3.292 1.438-3.34 1.379-3.389 1.315-3.435 1.254-3.48 1.189-3.526 1.126-3.568 1.059-3.609.992-3.651.925-3.69.857-3.728.787-3.764.717-3.799.646-3.834.573-3.868.499-3.899.426-3.93.35-3.959.274-3.986.198-4.014.118-4.04z"/><path id="_527887448" class="fil1" d="M679.506 800.587 1815.39 1936.47l-1.87 2.38-1.9 2.33-1.94 2.28-1.98 2.22-2.01 2.18-2.05 2.12-2.09 2.06-2.12 2.01-2.15 1.96-2.19 1.89-2.22 1.84-2.25 1.78-2.28 1.73-2.32 1.66-2.34 1.6-2.38 1.54-2.4 1.47-2.43 1.41-2.46 1.35-2.49 1.28-2.51 1.22-2.54 1.15-2.57 1.08-2.58 1.01-2.62.95-2.63.87-2.66.8-2.68.73-2.7.66-2.72.58-2.75.51-2.76.44L603.921 847.675l2.761-.434 2.742-.51 2.723-.584 2.701-.658 2.68-.73 2.659-.803 2.635-.873 2.612-.943 2.588-1.014 2.564-1.08 2.54-1.15 2.513-1.216 2.486-1.282 2.459-1.347 2.432-1.413 2.404-1.475 2.375-1.538 2.344-1.6 2.315-1.661 2.285-1.722 2.252-1.78 2.221-1.84 2.187-1.897 2.154-1.955 2.12-2.01 2.085-2.064 2.05-2.121 2.014-2.174 1.979-2.226 1.939-2.279 1.903-2.329z"/><path id="_527888144" class="fil1" d="M578.03 848.026 1713.91 1983.91l-2.86-.37-2.85-.46-2.82-.53-2.8-.61-2.78-.69-2.76-.77-2.74-.84-2.71-.92-2.68-.99-2.66-1.07-2.63-1.14-2.61-1.21-2.58-1.28-2.55-1.35-2.52-1.42-2.49-1.49-2.46-1.55-2.43-1.62-2.4-1.69-2.37-1.75-2.33-1.81-2.3-1.88-2.26-1.94-2.23-1.99-2.2-2.06L514.013 816.595l2.193 2.058 2.229 1.999 2.264 1.938 2.298 1.876 2.333 1.814 2.366 1.75 2.399 1.686 2.429 1.621 2.461 1.555 2.493 1.487 2.52 1.419 2.551 1.351 2.579 1.281 2.606 1.21 2.634 1.139 2.659 1.065 2.686.994 2.709.917 2.734.844 2.758.766 2.781.69 2.802.612 2.823.534 2.845.453z"/><path id="_527888288" class="fil1" d="M603.639 948.707 1739.52 2084.59l.01 1.63.01 1.59.02 1.56.03 1.53.04 1.5.05 1.46.06 1.43.06 1.4L603.918 960.807l-.064-1.4-.056-1.431-.048-1.463-.04-1.495-.03-1.528-.023-1.56-.013-1.594z"/><path id="_527888888" class="fil1" d="M605.457 960.799 1741.34 2096.68l.6 4.16.7 3.8.77 3.5.86 3.21.93 2.95.99 2.73 1.05 2.53 1.09 2.36 1.14 2.23 1.17 2.12 1.19 2.04 1.22 1.99 1.23 1.97 1.23 1.99 1.23 2.02 1.22 2.1 1.2 2.19 1.18 2.33 1.14 2.48 1.11 2.68 1.06 2.89 1 3.14.95 3.41.87 3.73.81 4.06.71 4.42.63 4.83.53 5.25.42 5.7.32 6.19.19 6.7.07 7.25L634.264 1069.75l-.066-7.25-.192-6.7-.312-6.19-.425-5.71-.53-5.24-.627-4.83-.718-4.43-.801-4.06-.875-3.72-.945-3.42-1.006-3.14-1.059-2.89-1.107-2.67-1.146-2.48-1.177-2.33-1.202-2.19-1.22-2.1-1.228-2.024-1.233-1.985-1.227-1.974-1.216-1.993-1.196-2.041-1.169-2.118-1.137-2.227-1.094-2.363-1.047-2.531-.99-2.726-.928-2.954-.857-3.208-.78-3.494-.694-3.809z"/><path id="_527888264" class="fil1" d="M634.264 1069.75 1770.15 2205.63l-.01 221.11-.06 2.25-.18 2.22-.3 2.2-.41 2.17-.52 2.13-.63 2.1-.73 2.05-.84 2.01-.93 1.96-1.03 1.92-1.12 1.86-1.21 1.8-1.29 1.75-1.38 1.68-1.45 1.61-1.53 1.55L620.646 1322.12l1.531-1.55 1.455-1.61 1.376-1.68 1.293-1.75 1.209-1.8 1.119-1.86 1.028-1.92.933-1.96.836-2.01.734-2.06.629-2.09.522-2.14.412-2.16.298-2.2.181-2.22.061-2.25z"/><path id="_527888576" class="fil1" d="M620.646 1322.12 1756.53 2458l-.08.08-.08.08-.08.08-.07.08-.08.08-.08.08-.08.08-.08.08-1.78 1.69-1.83 1.56-1.88 1.44-1.92 1.3-1.96 1.19-1.99 1.06-2.02.94-2.04.82-2.07.71-2.08.59-2.1.47-2.11.36-2.11.26-2.12.14-2.11.04-2.11-.07-2.09-.17-2.09-.27-2.06-.38-2.04-.47-2.02-.56-1.99-.67-1.95-.75-1.92-.85-1.87-.93-1.83-1.02-1.78-1.11-1.72-1.19-1.67-1.28-1.61-1.35L561.153 1324.26l1.606 1.35 1.668 1.27 1.724 1.2 1.779 1.1 1.828 1.03 1.875.93 1.915.85 1.953.75 1.988.66 2.016.57 2.043.47 2.065.37 2.082.28 2.096.17 2.107.06 2.113-.03 2.115-.15 2.114-.25 2.107-.36 2.098-.48 2.084-.59 2.066-.7 2.046-.82 2.019-.94 1.99-1.06 1.956-1.19 1.921-1.31 1.878-1.43 1.833-1.56 1.783-1.7.079-.08.078-.08.078-.07.08-.08.077-.08.078-.08.077-.08z"/><path id="_527888648" class="fil1" d="M603.921 847.675 1739.8 1983.56l-.28 101.03L603.639 948.707z"/><path id="_527888792" class="fil1" d="m1420.69 1403.59 1135.88 1135.88 1.01 1.13L1421.7 1404.72z"/><path id="_527888840" class="fil1" d="M1421.7 1404.72 2557.58 2540.6l.13.37.38.69.61 1 .81 1.29.97 1.56 1.09 1.81 1.19 2.03 1.25 2.25 1.26 2.43 1.27 2.61 1.22 2.75 1.14 2.87 1.03 2.99.88 3.08.71 3.14.49 3.19-1135.88-1135.88-.5-3.2-.7-3.14-.89-3.07-1.03-2.99-1.14-2.88-1.21-2.75-1.27-2.6-1.27-2.43-1.24-2.25-1.19-2.04-1.09-1.8-.97-1.56-.81-1.29-.61-1-.39-.7z"/><path id="_527888408" class="fil1" d="m1436.13 1438.78 1135.88 1135.88v.04l.01.04v.03l.01.04v.04l.01.04v.04l.01.04-1135.89-1135.88v-.08l-.01-.04v-.04l-.01-.04v-.04l-.01-.04z"/><path id="_527888480" class="fil1" d="m1436.16 1439.09 1135.89 1135.88.07.69.05.7.05.69.03.69.02.7.01.69-.01.7-.02.69-1135.88-1135.88.02-.7.01-.69-.01-.7-.02-.69-.03-.69-.05-.7-.06-.69z"/><path id="_527888672" class="fil1" d="m1436.37 1444.64 1135.88 1135.88-.15 2.41-.27 2.4-.37 2.38-.49 2.37-.59 2.36-.7 2.35-.81 2.33-.91 2.33-1.02 2.31-1.12 2.31-1.21 2.29-1.32 2.29-1.42 2.28-1.52 2.27-1.61 2.26-1.7 2.26-1135.89-1135.88 1.71-2.26 1.61-2.26 1.52-2.27 1.42-2.28 1.31-2.29 1.22-2.29 1.12-2.31 1.02-2.31.91-2.33.81-2.33.7-2.35.59-2.36.49-2.37.37-2.38.27-2.4z"/><path id="_527889632" class="fil1" d="m1124.5 1460.38 1135.88 1135.88-.75-.67-.73-.53-.73-.41-.72-.3-.71-.19-.69-.08-.68.01L1119.49 1458.2l.68-.01.69.09.71.19.72.29.73.42.73.53z"/><path id="_527889440" class="fil1" d="m1410.65 1487.22 1135.88 1135.89-8.33-.14-8.33-.15-8.32-.14-8.33-.15-8.33-.15-8.32-.15-8.33-.16-8.33-.15-8.33-.16-8.33-.16-8.32-.16-8.33-.17-8.33-.16-8.33-.17-8.33-.17-8.33-.17-8.32-.17-8.33-.18-8.33-.18-8.33-.18-8.33-.18-8.33-.18-8.32-.18-8.33-.19-8.33-.19-8.33-.19-8.32-.19-8.33-.19-8.32-.19-8.33-.2-8.33-.2-8.32-.19-1135.88-1135.89 8.32.2 8.33.2 8.32.19 8.33.2 8.33.19 8.32.19 8.33.19 8.33.19 8.33.18 8.32.19 8.33.18 8.33.18 8.33.18 8.33.18 8.32.17 8.33.18 8.33.17 8.33.17 8.33.17 8.33.16 8.32.17 8.33.16 8.33.16 8.33.16 8.33.15 8.32.16 8.33.15 8.33.15 8.33.15 8.32.14 8.33.14z"/><path id="_527889464" class="fil1" d="m1119.49 1458.2 1135.88 1135.89-.18.01-.19.03-.17.03-.18.04-.18.04-.18.05-.17.05-.18.06-1135.88-1135.89.18-.05.17-.06.18-.05.18-.04.17-.03.18-.03.18-.03z"/><path id="_527889248" class="fil1" d="m1421.15 1481.84 1135.89 1135.88-.94 1.19-1.07 1.07-1.18.93-1.3.78-1.4.63-1.47.45-1.55.28-1.6.07-1135.88-1135.88 1.6-.08 1.55-.27 1.47-.45 1.4-.63 1.29-.78 1.19-.94 1.07-1.06z"/><path id="_527889200" class="fil1" d="M1118.06 1458.51 2253.94 2594.4l-.63.24-.65.27-.64.31-.65.33-.66.36-.65.39-.66.41-.66.43-1135.88-1135.88.66-.44.65-.41.66-.38.66-.36.65-.34.64-.3.65-.27z"/><path id="_527889152" class="fil1" d="m1144.17 1481.73 1135.88 1135.89-2.04-.03-1.99-.34-1.89-.66-1.76-.94-1.6-1.22-1135.88-1135.89 1.6 1.22 1.76.95 1.89.66 1.99.34z"/><path id="_527889488" class="fil1" d="m1112.86 1461.26 1135.88 1135.88-1.74 1.24-1.73 1.34-1.69 1.42-1.65 1.46-1.57 1.47-1.5 1.44-1.4 1.38-1.29 1.29L1100.29 1472.3l1.29-1.29 1.4-1.38 1.5-1.44 1.57-1.47 1.65-1.46 1.69-1.42 1.73-1.34z"/><path id="_527889536" class="fil1" d="m1100.29 1472.3 1135.88 1135.88-1.24 1.24-1.19 1.16-1.16 1.08-1.14.99-1.13.9-1.15.79-1.18.67-1.23.56-1135.88-1135.89 1.22-.55 1.18-.68 1.15-.78 1.14-.9 1.14-.99 1.16-1.08 1.19-1.17z"/><path id="_527889176" class="fil1" d="m1090.87 1479.68 1135.88 1135.89-6.26 3.4-6.44 3.24-6.62 3.09-6.78 2.93-6.94 2.78-7.09 2.62-7.23 2.46-7.36 2.32-7.5 2.16-7.62 2-7.73 1.86-7.84 1.7-7.93 1.55-8.03 1.4-8.12 1.25-8.19 1.1-8.26.95-8.33.8-8.38.66-8.43.5-8.47.36-8.5.21-8.53.07-8.55-.08-8.56-.23-8.57-.37-8.56-.51-8.55-.66-8.54-.8-8.51-.95-8.48-1.09-8.43-1.22L837.535 1513.18l8.438 1.23 8.478 1.09 8.51.94 8.535.81 8.552.65 8.563.52 8.566.37 8.56.22 8.549.08 8.531-.06 8.503-.21 8.471-.36 8.428-.51 8.381-.65 8.326-.8 8.262-.95 8.192-1.1 8.114-1.25 8.03-1.4 7.936-1.55 7.84-1.7 7.73-1.86 7.62-2.01 7.5-2.15 7.36-2.32 7.23-2.46 7.09-2.63 6.94-2.77 6.78-2.93 6.61-3.09 6.45-3.24z"/><path id="_527889584" class="fil1" d="M837.535 1513.18 1973.42 2649.07l-7.06-1.14-7.02-1.24-6.98-1.34-6.94-1.44-6.9-1.53-6.85-1.63-6.8-1.73-6.73-1.83-6.67-1.92-6.61-2.02-6.53-2.12-6.46-2.21-6.37-2.32-6.3-2.4-6.2-2.51-6.1-2.6-6.01-2.7-5.91-2.79-5.8-2.89-5.69-2.98-5.57-3.08-5.45-3.18-5.33-3.27-5.19-3.36-5.07-3.46-4.92-3.56-4.78-3.64-4.64-3.75-4.48-3.83L662.176 1440.71l4.484 3.84 4.635 3.74 4.783 3.65 4.925 3.56 5.062 3.46 5.198 3.36 5.326 3.27 5.451 3.17 5.572 3.08 5.687 2.99 5.799 2.89 5.907 2.79 6.009 2.7 6.108 2.6 6.202 2.5 6.29 2.41 6.377 2.31 6.457 2.22 6.533 2.12 6.605 2.02 6.673 1.92 6.735 1.83 6.794 1.73 6.848 1.63 6.898 1.53 6.944 1.44 6.984 1.33 7.02 1.24z"/><path id="_517155856" class="fil1" d="M1449.12 1324.07a.821.821 0 0 1-.035-.03c-9.454-8.289-15.453-20.411-15.498-33.838v-.227c-.023 14.263 6.206 26.097 15.533 34.095zm60.883-1.124-.014.013c-9.64 9.119-21.385 12.856-32.746 12.316l.044.002c.548.02 1.098.03 1.651.03l.653-.01h.048c11.633-.181 22.327-4.892 30.365-12.351zm12.872-20.66c-2.317 7.932-6.848 15.068-12.872 20.66.328-.311.654-.628.976-.95 5.46-5.46 9.68-12.162 11.896-19.71zm1.727-12.017c0 4.077-.586 8.055-1.678 11.853l-.049.164a42.528 42.528 0 0 0 1.727-12.017zm23.889-759.18 35.158 149.078c.236 3.797.352 6.968.352 9.533 0 33.07-11.254 56.416-29.098 72.07-15.264 13.392-46.505 55.596-62.088 87.843-2.256 4.668-4.185 9.128-5.688 13.261-3.14.195-5.962.312-8.475.352l-.095 62.502-.097-62.502c-2.514-.04-5.334-.157-8.475-.352-1.168-3.211-2.592-6.619-4.228-10.169-15.008-32.58-47.791-77.11-63.548-90.934-17.844-15.655-29.099-39-29.099-72.071l.352-9.533 35.16-149.078c.674 1.753.991 3.673.869 5.67l-9.028 145.057c-.137 2.177-.203 4.812-.203 7.883-.368 27.21 15.4 44.677 37.058 53.527l12.86-211.513 12.906 217.837c5.027.545 10.144.748 15.26.618l.213-.004.211.004c6.05.154 12.098-.158 17.999-.95l6.917-220.317 18.591 213.26c20.372-9.15 34.93-26.303 34.576-52.462 0-3.07-.066-5.705-.202-7.882l-8.158-150.728zm-389.432 551.128 19.502-259.585c34.56-70.653 120.802-101.834 145.924-65.268 49.953 72.703-165.464 324.872-165.427 324.853zm290.061 241.853c7.818 6.705 17.812 10.716 28.123 11.205-10.734-.398-20.538-4.568-28.123-11.205zM589.618 528.902c35.328 0 67.093 18.384 89.889 48.104 22.075 28.784 35.73 68.322 35.73 111.791 0 43.47-13.655 83.007-35.73 111.79-19.674 25.65-46.028 42.855-75.586 47.087l-.281 101.032c0 4.39.097 8.407.279 12.1l1.539-.007c5.908 46.247 28.807 28.63 28.807 108.95l-.001 221.11c0 12.05-5.255 23.21-13.617 31.257-.207.214-.415.427-.625.637-18.751 18.75-46.567 15.074-61.882-1.44-7.763-7.978-12.549-18.85-12.524-30.76l.913-219.281c.244-76.465 24.344-65.033 29.95-110.312l1.401-.009c.1-2.552.151-5.253.151-8.117V848.026c-30.659-3.541-58.027-21.006-78.3-47.44-22.076-28.782-35.73-68.32-35.73-111.788 0-43.47 13.654-83.008 35.73-111.79 22.796-29.722 54.559-48.106 89.887-48.106zm531.248 866.21 290.638 4.88a12.494 12.494 0 0 1 10.199 4.727c-.109 1.02 12.424 16.952 14.426 34.055a37.074 37.074 0 0 1 .243 5.864c-.518 12.897-5.863 25.178-15.217 37.2a12.504 12.504 0 0 1-10.509 5.4v-.015c-88.811-1.49-177.678-3.364-266.478-5.49-5.482.395-10.772-2.88-12.693-8.313l.04-.013c-4.261-12.031-8.42-15.499-12.028-15.205-.485.04-.96.148-1.424.312-1.69.598-3.448 1.563-5.203 2.741-4.658 3.13-9.298 7.767-12.573 11.044-3.384 3.384-6.078 6.076-9.417 7.385-65.815 37.113-163.558 47.356-253.335 33.499-75.383-11.637-146.052-40.119-187.858-84.544-4.38-4.653-14.857-15.93-18.449-24.257-.798-1.849-1.256-3.552-1.233-5.005.111-6.9 5.797-12.406 12.697-12.295l478.174 8.03z"/></g></g><path d="M1024-.001c565.541 0 1024 458.46 1024 1024s-458.461 1024-1024 1024c-565.541 0-1024-458.461-1024-1024 0-565.541 458.461-1024 1024-1024z" style="fill:none"/><path d="M1083.85 1455.74c.996-.18 2.003-.235 2.996-.174 2.689.016-2.753-.36-3.955-.791l.959.965z" style="fill:#424242;fill-rule:nonzero"/><path class="fil4" d="M837.535 1513.18c-75.383-11.637-146.052-40.118-187.858-84.545-5.352-5.685-19.81-21.264-19.682-29.26.111-6.901 5.796-12.407 12.697-12.296l768.812 12.91a12.499 12.499 0 0 1 10.199 4.728c-.12 1.135 15.44 20.77 14.67 39.919-.52 12.897-5.864 25.177-15.22 37.197a12.495 12.495 0 0 1-10.507 5.402v-.015c-88.811-1.489-177.678-3.362-266.478-5.492-5.482.397-10.772-2.878-12.694-8.311l.039-.014c-4.832-13.648-9.536-16.276-13.45-14.892-6.174 2.183-13.265 9.274-17.777 13.785-3.383 3.384-6.077 6.077-9.416 7.385-65.815 37.113-163.559 47.357-253.335 33.499z"/><path class="fil5" d="M1120.01 1434.15v.04l-.526 24.013c3.607-.294 7.769 3.174 12.026 15.203l-.039.015c1.922 5.433 7.212 8.708 12.695 8.311 88.8 2.13 177.666 4.003 266.478 5.492v.014a12.495 12.495 0 0 0 10.507-5.4c9.356-12.021 14.7-24.3 15.219-37.199a37.08 37.08 0 0 0-.207-5.55l-.037-.314-316.116-4.625z"/><path class="fil6" d="m1411.5 1399.99-290.638-4.88-.854 39.037 316.116 4.626c-2.004-17.105-14.535-33.036-14.426-34.055a12.499 12.499 0 0 0-10.199-4.728z"/><path d="M837.535 1513.18c89.776 13.858 187.52 3.614 253.335-33.498 3.339-1.31 6.033-4.002 9.416-7.386 3.277-3.276 7.916-7.915 12.575-11.044-220.586 64.193-368.403 19.705-481.633-56.872 3.592 8.326 14.07 19.603 18.449 24.255 41.806 44.426 112.475 72.907 187.858 84.545z" style="fill:#e6e6e5"/><path class="fil4" d="M603.935 842.844c0-7.072-6.028-12.51-13.1-12.51-7.07 0-12.804 5.733-12.804 12.804v109.696c0 68.755-29.857 43.533-30.125 127.338l-.885 212.36c0 11.777 4.809 22.475 12.555 30.221 7.747 7.748 18.444 12.555 30.221 12.555h.003c11.776 0 22.475-4.807 30.222-12.555 7.747-7.745 12.849-18.149 12.849-29.927v-214.128c0-89.305-29.231-53.586-29.231-129.99l.295-105.864z"/><path class="fil4" d="M589.617 528.903c35.328 0 67.093 18.384 89.888 48.104 22.077 28.784 35.73 68.322 35.73 111.79v.001c0 43.47-13.654 83.007-35.73 111.79-22.795 29.72-54.559 48.103-89.887 48.103s-67.092-18.383-89.888-48.104c-22.077-28.783-35.73-68.32-35.73-111.79 0-43.468 13.653-83.007 35.73-111.789 22.796-29.721 54.559-48.105 89.887-48.105z"/><path class="fil8" d="M589.619 535.939c28.042 0 53.256 14.592 71.35 38.184 17.523 22.847 28.362 54.231 28.362 88.735v.001c0 34.504-10.839 65.888-28.363 88.735-18.093 23.592-43.306 38.184-71.349 38.184-28.043 0-53.256-14.592-71.35-38.184-17.524-22.847-28.362-54.231-28.362-88.736 0-34.504 10.838-65.888 28.362-88.735 18.094-23.592 43.307-38.184 71.35-38.184z"/><path class="fil5" d="m590.424 960.883-13.945.077c-5.608 45.279-29.706 33.847-29.95 110.312l-.914 219.282c-.05 24.236 19.82 44.17 44.172 44.17.213 0 .424-.004.637-.008V960.883z"/><path class="fil6" d="m605.457 960.8-14.73.08-.303.003v373.833h.046c23.94-.375 43.793-20.435 43.793-43.858l.001-221.11c0-80.32-22.9-62.704-28.807-108.95z"/><path d="M585.578 560.731a2.915 2.915 0 0 0 0 5.828c10.957 0 21.38 2.799 30.86 7.873 9.924 5.311 18.826 13.102 26.245 22.775 7.227 9.423 13.056 20.66 17.041 33.129 3.841 12.016 5.961 25.184 5.961 38.982a2.915 2.915 0 0 0 5.828 0c0-14.385-2.223-28.152-6.25-40.753-4.188-13.102-10.336-24.94-17.976-34.899-7.932-10.342-17.461-18.677-28.097-24.37-10.314-5.519-21.664-8.565-33.612-8.565z" style="fill:#cfcfcf;fill-rule:nonzero"/><path class="fil4" d="M1408.62 531.089c.674 1.753.992 3.674.87 5.67l-9.028 145.058c-.137 2.177-.202 4.813-.203 7.883-.58 42.77 38.708 61.467 78.084 60.47l.211-.006.213.005c39.374.998 78.663-17.699 78.083-60.469 0-3.07-.067-5.706-.202-7.883l-8.158-150.729 35.159 149.08c.235 3.797.352 6.967.352 9.532-.001 33.071-11.255 56.417-29.099 72.071-17.474 15.33-55.886 68.421-67.776 101.104-3.14.195-5.963.312-8.475.352l-.097.001-.095-.001a185.89 185.89 0 0 1-8.475-.352c-11.891-32.682-50.303-85.774-67.776-101.104-17.844-15.654-29.099-39-29.099-72.07l.352-9.534 35.16-149.079z"/><path class="fil4" d="m1450.18 531.715-13.75 226.16c0 7.496 6.078 13.574 13.574 13.574 7.498 0 13.576-6.078 13.576-13.574l-13.4-226.16zM1503.68 528.902l-7.187 228.973c0 7.496 6.078 13.574 13.574 13.574 7.498 0 13.576-6.078 13.576-13.574l-19.963-228.973zM1493.22 852.354c0-7.496-6.078-4.513-13.574-4.513-7.498 0-13.888-2.672-13.888 4.826l.704 77.154c0 72.892-31.653 46.153-31.937 135l-.938 225.136c0 12.487 5.098 23.828 13.31 32.04 8.212 8.214 19.555 13.311 32.039 13.311h.002c12.487 0 23.828-5.097 32.041-13.31 8.212-8.213 13.623-19.242 13.623-31.728v-227.012c0-94.678-30.99-56.81-30.99-137.812l-.392-73.092z"/><path class="fil5" d="m1479.59 951.487-14.319.08c-5.756 46.486-30.498 34.75-30.748 113.254l-.938 225.136c-.052 24.884 20.35 45.35 45.35 45.35.22 0 .437-.005.654-.009l.001-383.81z"/><path class="fil6" d="m1495.03 951.402-15.124.084-.31.001v383.811h.047c24.578-.385 44.963-20.98 44.963-45.028v-227.012c0-82.464-23.51-64.376-29.576-111.856z"/><path class="fil8" d="M1265.12 975.967v291.617c0 10.247-8.308 18.555-18.555 18.555H819.818c-10.247 0-18.554-8.308-18.554-18.555V961.553c-26.608-11.41-49.23-27.57-65.802-46.97-19.265-22.552-30.398-49.367-30.398-78.272 0-40.83 22.152-77.419 57.962-103.57 34.131-24.923 80.913-40.34 132.256-40.34 27.143 0 52.992 4.288 76.347 11.989 19.494 6.428 37.29 15.262 52.705 26.002 16.318-10.81 34.991-19.676 55.353-26.11 24.19-7.644 50.808-11.88 78.71-11.88 54.85 0 104.808 16.454 141.238 43.057 38.11 27.83 61.683 66.74 61.683 110.13 0 29.48-10.923 56.936-29.944 80.32-16.542 20.337-39.294 37.513-66.254 50.058z"/><path d="M1265.12 976.154v-.187l.194-.09v-.032c-38.266 18.904-85.287 30.05-136.12 30.05-61.877 0-118.111-16.51-159.772-43.435-24.898 10.39-53.138 16.256-83.067 16.256-30.744 0-59.706-6.19-85.092-17.114v.356c55.497 39.307 105.376 43.651 168.158 18.2 103.214 64.796 192.68 45.435 295.697-4.004z" style="fill:#cfcfce"/><path d="M1331.38 925.909c19.022-23.385 29.945-50.842 29.945-80.32 0-43.391-23.573-82.301-61.684-110.13-36.43-26.604-86.388-43.058-141.239-43.058-27.9 0-54.518 4.237-78.708 11.88-14.094 4.453-27.38 10.073-39.636 16.696-58.684 33.32-97.29 89.897-97.29 154.086 0 31.706 9.419 61.554 26.025 87.66l.635-.263c41.661 26.924 97.895 43.435 159.773 43.435 50.833 0 97.853-11.146 136.12-30.051v.032c26.874-12.536 49.558-29.68 66.06-49.967z" style="fill:#fffffe"/></g></svg>